<?xml version="1.0" encoding="UTF-8"?>
<svg
  xmlns="http://www.w3.org/2000/svg"
  viewBox="0 0 200 200"
  width="512"
  height="512"
  role="img"
  aria-label="БАТЫР — эмблема татарского тюльпана">
  <title>БАТЫР — эмблема</title>
  <desc>Ботаническая эмблема семейного бюро путешествий БАТЫР. Татарский тюльпан.</desc>

  <g id="emblem" fill="#4D554C">

    <!-- Нижняя часть — крылья и тело тюльпана -->
    <path d="
      M45.618 80.665
      C65.816 85.552 73.493 90.884 89.646 102.809
      C93.096 106.344 96.256 109.009 101.508 108.539
      C104.016 107.467 106.818 105.717 108.493 103.535
      C117.323 97.422 127.847 89.829 137.452 85.569
      C157.749 76.568 151.089 85.63 151.997 96.794
      C153.385 113.845 160.848 129.921 149.978 146.183
      C141.632 158.67 126.026 169.693 111.604 172.889
      C108.081 171.698 103.059 169.466 99.496 168.017
      C84.494 176.077 79.496 170.306 66.438 162.481
      C53.128 154.504 42.74 139.232 44.6 123.161
      C46.453 107.157 48.991 96.99 45.618 80.665
      Z
      M73.248 128.455
      C75.092 139.127 77.181 146.887 83.815 155.775
      C85.23 157.67 86.715 160.675 89.172 161.204
      C90.539 160.07 90.111 160.597 90.577 158.572
      C89.834 155.796 88.561 153.306 87.914 150.683
      C85.18 139.6 89.566 126.704 96.486 117.939
      C84.705 105.087 70.57 95.065 54.039 89.221
      C52.135 119.094 42.952 151.406 79.635 162.338
      C77.599 153.372 60.154 127.962 67.958 118.884
      C71.348 119.843 72.594 125.333 73.248 128.455
      Z
      M148.301 119.27
      C148.483 117.796 148.24 117.194 147.903 115.772
      C147.207 107.198 146.429 98.388 146.141 89.808
      C126.502 94.822 117.495 104.45 103.74 118.031
      C110.077 128.324 114.867 140.041 111.912 152.325
      C110.919 156.452 110.422 158.958 106.616 161.15
      L107.286 162.611
      C113.011 164.433 123.812 144.406 124.731 138.626
      C125.563 133.397 128.073 121.778 131.058 118.058
      C136.005 120.401 134.135 124.609 133.15 129.312
      L132.514 133.702
      C131.603 136.89 130.555 141.131 129.112 144.017
      C126.179 150.404 121.976 157.364 118.431 163.541
      C132.677 158.266 142.342 150.906 147.434 136.455
      C148.796 130.23 148.563 125.529 148.301 119.27
      Z
      M104.552 160.866
      C106.238 148.766 109.485 133.855 99.691 124.477
      C91.901 137.118 93.059 146.633 94.612 161.035
      L95.484 161.842
      L97.887 161.75
      C100.165 161.35 102.236 160.899 104.552 160.866
      Z
    "/>

    <!-- Верхняя часть — бутон тюльпана -->
    <path d="
      M84.566 69.055
      C87.563 54.796 91.498 42.515 99.981 30.338
      C106.936 42.186 113.989 54.865 115.566 68.722
      C119.95 67.885 135.735 65.045 137.953 70.06
      C136.597 78.252 119.583 85.686 113.611 91.032
      C110.74 93.602 109.114 97.315 106.524 99.929
      L104.427 96.872
      C102.994 95.039 102.223 93.621 100.107 92.784
      C96.733 93.46 96.493 96.101 93.671 98.415
      C89.92 96.908 87.763 91.791 84.6 89.32
      C80.143 85.837 59.679 76.891 61.788 69.899
      C66.531 65.661 79.01 67.522 84.566 69.055
      Z
      M89.845 70.303
      C95.049 75.294 95.742 77.796 100.003 82.81
      C103.153 78.563 106.136 74.277 109.867 70.533
      C108.548 63.126 106.044 48.063 99.807 43.239
      C94.303 53.204 91.946 58.865 89.845 70.303
      Z
      M92.647 86.874
      C92.324 73.462 81.498 73.753 70.903 73.853
      C77.792 78.505 84.906 84.198 92.647 86.874
      Z
      M109.942 86.315
      C115.542 82.097 124.363 77.297 128.903 73.597
      C127.69 73.547 126.477 73.477 125.264 73.48
      C119.37 74.095 107.661 75.89 107.083 84.907
      C107.022 85.868 107.439 85.961 108.113 86.685
      C109.086 86.606 109.229 86.747 109.942 86.315
      Z
    "/>

  </g>
</svg>
